<?xml version="1.0" encoding="utf-8" standalone="no"?>
<!DOCTYPE svg PUBLIC "-//W3C//DTD SVG 1.1//EN"
  "http://www.w3.org/Graphics/SVG/1.1/DTD/svg11.dtd">
<svg xmlns:xlink="http://www.w3.org/1999/xlink" width="720pt" height="360pt" viewBox="0 0 720 360" xmlns="http://www.w3.org/2000/svg" version="1.1">
 <metadata>
  <rdf:RDF xmlns:dc="http://purl.org/dc/elements/1.1/" xmlns:cc="http://creativecommons.org/ns#" xmlns:rdf="http://www.w3.org/1999/02/22-rdf-syntax-ns#">
   <cc:Work>
    <dc:type rdf:resource="http://purl.org/dc/dcmitype/StillImage"/>
    <dc:date>2026-09-23T13:02:24.879271</dc:date>
    <dc:format>image/svg+xml</dc:format>
    <dc:creator>
     <cc:Agent>
      <dc:title>Matplotlib v3.10.8, https://matplotlib.org/</dc:title>
     </cc:Agent>
    </dc:creator>
   </cc:Work>
  </rdf:RDF>
 </metadata>
 <defs>
  <style type="text/css">*{stroke-linejoin: round; stroke-linecap: butt}</style>
 </defs>
 <g id="figure_1">
  <g id="patch_1">
   <path d="M 0 360 
L 720 360 
L 720 0 
L 0 0 
z
" style="fill: #ffffff"/>
  </g>
  <g id="axes_1">
   <g id="matplotlib.axis_1">
    <g id="xtick_1">
     <g id="line2d_1">
      <path d="M 65.434283 325.069531 
L 65.434283 7.2 
" clip-path="url(#p3373ad2431)" style="fill: none; stroke: #e5e5e5; stroke-linecap: square"/>
     </g>
     <g id="text_1">
      <!-- 0 -->
      <g style="fill: #4d4d4d" transform="translate(62.98747 333.582156) scale(0.088 -0.088)">
       <defs>
        <path id="Helvetica-30" d="M 1731 4475 
Q 2600 4475 2988 3759 
Q 3288 3206 3288 2244 
Q 3288 1331 3016 734 
Q 2622 -122 1728 -122 
Q 922 -122 528 578 
Q 200 1163 200 2147 
Q 200 2909 397 3456 
Q 766 4475 1731 4475 
z
M 1725 391 
Q 2163 391 2422 778 
Q 2681 1166 2681 2222 
Q 2681 2984 2493 3476 
Q 2306 3969 1766 3969 
Q 1269 3969 1039 3501 
Q 809 3034 809 2125 
Q 809 1441 956 1025 
Q 1181 391 1725 391 
z
" transform="scale(0.015625)"/>
       </defs>
       <use xlink:href="#Helvetica-30"/>
      </g>
     </g>
    </g>
    <g id="xtick_2">
     <g id="line2d_2">
      <path d="M 219.568977 325.069531 
L 219.568977 7.2 
" clip-path="url(#p3373ad2431)" style="fill: none; stroke: #e5e5e5; stroke-linecap: square"/>
     </g>
     <g id="text_2">
      <!-- 1 -->
      <g style="fill: #4d4d4d" transform="translate(217.122165 333.582156) scale(0.088 -0.088)">
       <defs>
        <path id="Helvetica-31" d="M 613 3169 
L 613 3600 
Q 1222 3659 1462 3798 
Q 1703 3938 1822 4456 
L 2266 4456 
L 2266 0 
L 1666 0 
L 1666 3169 
L 613 3169 
z
" transform="scale(0.015625)"/>
       </defs>
       <use xlink:href="#Helvetica-31"/>
      </g>
     </g>
    </g>
    <g id="xtick_3">
     <g id="line2d_3">
      <path d="M 373.703672 325.069531 
L 373.703672 7.2 
" clip-path="url(#p3373ad2431)" style="fill: none; stroke: #e5e5e5; stroke-linecap: square"/>
     </g>
     <g id="text_3">
      <!-- 2 -->
      <g style="fill: #4d4d4d" transform="translate(371.256859 333.582156) scale(0.088 -0.088)">
       <defs>
        <path id="Helvetica-32" d="M 200 0 
Q 231 578 439 1006 
Q 647 1434 1250 1784 
L 1850 2131 
Q 2253 2366 2416 2531 
Q 2672 2791 2672 3125 
Q 2672 3516 2437 3745 
Q 2203 3975 1813 3975 
Q 1234 3975 1013 3538 
Q 894 3303 881 2888 
L 309 2888 
Q 319 3472 525 3841 
Q 891 4491 1816 4491 
Q 2584 4491 2939 4075 
Q 3294 3659 3294 3150 
Q 3294 2613 2916 2231 
Q 2697 2009 2131 1694 
L 1703 1456 
Q 1397 1288 1222 1134 
Q 909 863 828 531 
L 3272 531 
L 3272 0 
L 200 0 
z
" transform="scale(0.015625)"/>
       </defs>
       <use xlink:href="#Helvetica-32"/>
      </g>
     </g>
    </g>
    <g id="xtick_4">
     <g id="line2d_4">
      <path d="M 527.838366 325.069531 
L 527.838366 7.2 
" clip-path="url(#p3373ad2431)" style="fill: none; stroke: #e5e5e5; stroke-linecap: square"/>
     </g>
     <g id="text_4">
      <!-- 3 -->
      <g style="fill: #4d4d4d" transform="translate(525.391554 333.582156) scale(0.088 -0.088)">
       <defs>
        <path id="Helvetica-33" d="M 1663 -122 
Q 869 -122 511 314 
Q 153 750 153 1375 
L 741 1375 
Q 778 941 903 744 
Q 1122 391 1694 391 
Q 2138 391 2406 628 
Q 2675 866 2675 1241 
Q 2675 1703 2392 1887 
Q 2109 2072 1606 2072 
Q 1550 2072 1492 2070 
Q 1434 2069 1375 2066 
L 1375 2563 
Q 1463 2553 1522 2550 
Q 1581 2547 1650 2547 
Q 1966 2547 2169 2647 
Q 2525 2822 2525 3272 
Q 2525 3606 2287 3787 
Q 2050 3969 1734 3969 
Q 1172 3969 956 3594 
Q 838 3388 822 3006 
L 266 3006 
Q 266 3506 466 3856 
Q 809 4481 1675 4481 
Q 2359 4481 2734 4176 
Q 3109 3872 3109 3294 
Q 3109 2881 2888 2625 
Q 2750 2466 2531 2375 
Q 2884 2278 3082 2001 
Q 3281 1725 3281 1325 
Q 3281 684 2859 281 
Q 2438 -122 1663 -122 
z
" transform="scale(0.015625)"/>
       </defs>
       <use xlink:href="#Helvetica-33"/>
      </g>
     </g>
    </g>
    <g id="xtick_5">
     <g id="line2d_5">
      <path d="M 681.973061 325.069531 
L 681.973061 7.2 
" clip-path="url(#p3373ad2431)" style="fill: none; stroke: #e5e5e5; stroke-linecap: square"/>
     </g>
     <g id="text_5">
      <!-- 4 -->
      <g style="fill: #4d4d4d" transform="translate(679.526249 333.582156) scale(0.088 -0.088)">
       <defs>
        <path id="Helvetica-34" d="M 2116 1584 
L 2116 3613 
L 681 1584 
L 2116 1584 
z
M 2125 0 
L 2125 1094 
L 163 1094 
L 163 1644 
L 2213 4488 
L 2688 4488 
L 2688 1584 
L 3347 1584 
L 3347 1094 
L 2688 1094 
L 2688 0 
L 2125 0 
z
" transform="scale(0.015625)"/>
       </defs>
       <use xlink:href="#Helvetica-34"/>
      </g>
     </g>
    </g>
    <g id="xtick_6">
     <g id="line2d_6">
      <path d="M 142.50163 325.069531 
L 142.50163 7.2 
" clip-path="url(#p3373ad2431)" style="fill: none; stroke: #fafafa; stroke-width: 0.5; stroke-linecap: square"/>
     </g>
    </g>
    <g id="xtick_7">
     <g id="line2d_7">
      <path d="M 296.636325 325.069531 
L 296.636325 7.2 
" clip-path="url(#p3373ad2431)" style="fill: none; stroke: #fafafa; stroke-width: 0.5; stroke-linecap: square"/>
     </g>
    </g>
    <g id="xtick_8">
     <g id="line2d_8">
      <path d="M 450.771019 325.069531 
L 450.771019 7.2 
" clip-path="url(#p3373ad2431)" style="fill: none; stroke: #fafafa; stroke-width: 0.5; stroke-linecap: square"/>
     </g>
    </g>
    <g id="xtick_9">
     <g id="line2d_9">
      <path d="M 604.905714 325.069531 
L 604.905714 7.2 
" clip-path="url(#p3373ad2431)" style="fill: none; stroke: #fafafa; stroke-width: 0.5; stroke-linecap: square"/>
     </g>
    </g>
   </g>
   <g id="matplotlib.axis_2">
    <g id="ytick_1">
     <g id="line2d_10">
      <path d="M 34.607344 310.620916 
L 712.8 310.620916 
" clip-path="url(#p3373ad2431)" style="fill: none; stroke: #e5e5e5; stroke-linecap: square"/>
     </g>
     <g id="text_6">
      <!-- -1 -->
      <g style="fill: #4d4d4d" transform="translate(24.583594 313.777229) scale(0.088 -0.088)">
       <defs>
        <path id="Helvetica-2d" d="M 266 2072 
L 1834 2072 
L 1834 1494 
L 266 1494 
L 266 2072 
z
" transform="scale(0.015625)"/>
       </defs>
       <use xlink:href="#Helvetica-2d"/>
       <use xlink:href="#Helvetica-31" transform="translate(33.300781 0)"/>
      </g>
     </g>
    </g>
    <g id="ytick_2">
     <g id="line2d_11">
      <path d="M 34.607344 214.296816 
L 712.8 214.296816 
" clip-path="url(#p3373ad2431)" style="fill: none; stroke: #e5e5e5; stroke-linecap: square"/>
     </g>
     <g id="text_7">
      <!-- 0 -->
      <g style="fill: #4d4d4d" transform="translate(27.513719 217.453128) scale(0.088 -0.088)">
       <use xlink:href="#Helvetica-30"/>
      </g>
     </g>
    </g>
    <g id="ytick_3">
     <g id="line2d_12">
      <path d="M 34.607344 117.972715 
L 712.8 117.972715 
" clip-path="url(#p3373ad2431)" style="fill: none; stroke: #e5e5e5; stroke-linecap: square"/>
     </g>
     <g id="text_8">
      <!-- 1 -->
      <g style="fill: #4d4d4d" transform="translate(27.513719 121.129028) scale(0.088 -0.088)">
       <use xlink:href="#Helvetica-31"/>
      </g>
     </g>
    </g>
    <g id="ytick_4">
     <g id="line2d_13">
      <path d="M 34.607344 21.648615 
L 712.8 21.648615 
" clip-path="url(#p3373ad2431)" style="fill: none; stroke: #e5e5e5; stroke-linecap: square"/>
     </g>
     <g id="text_9">
      <!-- 2 -->
      <g style="fill: #4d4d4d" transform="translate(27.513719 24.804928) scale(0.088 -0.088)">
       <use xlink:href="#Helvetica-32"/>
      </g>
     </g>
    </g>
    <g id="ytick_5">
     <g id="line2d_14">
      <path d="M 34.607344 262.458866 
L 712.8 262.458866 
" clip-path="url(#p3373ad2431)" style="fill: none; stroke: #fafafa; stroke-width: 0.5; stroke-linecap: square"/>
     </g>
    </g>
    <g id="ytick_6">
     <g id="line2d_15">
      <path d="M 34.607344 166.134766 
L 712.8 166.134766 
" clip-path="url(#p3373ad2431)" style="fill: none; stroke: #fafafa; stroke-width: 0.5; stroke-linecap: square"/>
     </g>
    </g>
    <g id="ytick_7">
     <g id="line2d_16">
      <path d="M 34.607344 69.810665 
L 712.8 69.810665 
" clip-path="url(#p3373ad2431)" style="fill: none; stroke: #fafafa; stroke-width: 0.5; stroke-linecap: square"/>
     </g>
    </g>
   </g>
   <g id="line2d_17">
    <path d="M 65.434283 117.972715 
L 219.568977 214.296816 
L 373.703672 117.972715 
L 527.838366 214.296816 
L 681.973061 117.972715 
" clip-path="url(#p3373ad2431)" style="fill: none; stroke: #ff8c00; stroke-width: 3.544908"/>
   </g>
  </g>
  <g id="text_10">
   <!-- x -->
   <g transform="translate(370.953672 350.507187) scale(0.11 -0.11)">
    <defs>
     <path id="Helvetica-78" d="M 94 3347 
L 822 3347 
L 1591 2169 
L 2369 3347 
L 3053 3331 
L 1925 1716 
L 3103 0 
L 2384 0 
L 1553 1256 
L 747 0 
L 34 0 
L 1213 1716 
L 94 3347 
z
" transform="scale(0.015625)"/>
    </defs>
    <use xlink:href="#Helvetica-78"/>
   </g>
  </g>
  <g id="text_11">
   <!-- y -->
   <g transform="translate(15.025469 168.884766) rotate(-90) scale(0.11 -0.11)">
    <defs>
     <path id="Helvetica-79" d="M 2503 3347 
L 3125 3347 
Q 3006 3025 2597 1878 
Q 2291 1016 2084 472 
Q 1597 -809 1397 -1090 
Q 1197 -1372 709 -1372 
Q 591 -1372 527 -1362 
Q 463 -1353 369 -1328 
L 369 -816 
Q 516 -856 581 -865 
Q 647 -875 697 -875 
Q 853 -875 926 -823 
Q 1000 -772 1050 -697 
Q 1066 -672 1162 -440 
Q 1259 -209 1303 -97 
L 66 3347 
L 703 3347 
L 1600 622 
L 2503 3347 
z
M 1597 3428 
L 1597 3428 
z
" transform="scale(0.015625)"/>
    </defs>
    <use xlink:href="#Helvetica-79"/>
   </g>
  </g>
 </g>
 <defs>
  <clipPath id="p3373ad2431">
   <rect x="34.607344" y="7.2" width="678.192656" height="317.869531"/>
  </clipPath>
 </defs>
</svg>
